# xmcd CD database file
#
# Track frame offsets:
#	150
#	16875
#	35785
#	55445
#	76200
#	95250
#	113735
#	131580
#	149505
#	169830
#	187980
#
# Disc length: 2752 seconds
#
# Revision: 25
# Processed by: cddbd v1.5.2PL0 Copyright (c) Steve Scherf et al.
# Submitted via: CDex 1.70beta2
#
DISCID=910abe0b
DTITLE=倉木麻衣 - If I Believe
DYEAR=2003
DGENRE=JPop
TTITLE0=If I Believe
TTITLE1=Time after time ～花舞う街で～ (theater version)
TTITLE2=風のららら
TTITLE3=Kiss
TTITLE4=mi corazon
TTITLE5=I don't wanna lose you
TTITLE6=Make my day 〜album version〜
TTITLE7=SAME
TTITLE8=Just A Little Bit
TTITLE9=You are not the only one
TTITLE10=Tonight, I feel close to you (with 孫 燕姿 <Yan-Zi>)
EXTD=YEAR: 2003
EXTT0=
EXTT1=
EXTT2=
EXTT3=
EXTT4=
EXTT5=
EXTT6=
EXTT7=
EXTT8=
EXTT9=
EXTT10=
PLAYORDER=
